<svg fill="#fff" height="100" viewBox="0 0 50 50" width="100" xmlns="http://www.w3.org/2000/svg"><path d="m7.125 2 21.65625 21.5 5.9375-5.9375-26.25-15.15625c-.4375-.253906-.90625-.394531-1.34375-.40625zm-1.8125 1c-.195312.347656-.3125.757813-.3125 1.21875v41.78125c0 .335938.070313.636719.1875.90625l22.15625-22zm31.21875 15.59375-6.34375 6.3125 6.34375 6.28125 7.75-4.4375c1.101563-.636719 1.257813-1.445312 1.25-1.875-.011719-.710937-.460937-1.375-1.21875-1.78125-.660156-.355469-5.5625-3.210937-7.78125-4.5zm-7.75 7.71875-21.84375 21.65625c.363281-.019531.757813-.097656 1.125-.3125.855469-.496094 18.15625-10.5 18.15625-10.5l8.53125-4.90625z" fill="#fff"/></svg>